<mxfile host="Electron" agent="Mozilla/5.0 (Windows NT 10.0; Win64; x64) AppleWebKit/537.36 (KHTML, like Gecko) draw.io/24.7.17 Chrome/128.0.6613.36 Electron/32.0.1 Safari/537.36" version="24.7.17">
  <diagram name="Page-1" id="20VWj6sXdKDzKjPwbnq8">
    <mxGraphModel dx="1434" dy="1936" grid="1" gridSize="10" guides="1" tooltips="1" connect="1" arrows="1" fold="1" page="1" pageScale="1" pageWidth="850" pageHeight="1100" math="0" shadow="0">
      <root>
        <mxCell id="0" />
        <mxCell id="1" parent="0" />
        <mxCell id="qWHH9ZGt4lW2_PK5CefO-1" value="" style="shape=mxgraph.cisco.routers.router;sketch=0;html=1;pointerEvents=1;dashed=0;fillColor=#036897;strokeColor=#ffffff;strokeWidth=2;verticalLabelPosition=bottom;verticalAlign=top;align=center;outlineConnect=0;" parent="1" vertex="1">
          <mxGeometry x="380" y="-30" width="78" height="53" as="geometry" />
        </mxCell>
        <mxCell id="qWHH9ZGt4lW2_PK5CefO-2" value="" style="shape=mxgraph.cisco.routers.router;sketch=0;html=1;pointerEvents=1;dashed=0;fillColor=#036897;strokeColor=#ffffff;strokeWidth=2;verticalLabelPosition=bottom;verticalAlign=top;align=center;outlineConnect=0;" parent="1" vertex="1">
          <mxGeometry x="660" y="390" width="78" height="53" as="geometry" />
        </mxCell>
        <mxCell id="qWHH9ZGt4lW2_PK5CefO-3" value="" style="shape=mxgraph.cisco.routers.router;sketch=0;html=1;pointerEvents=1;dashed=0;fillColor=#036897;strokeColor=#ffffff;strokeWidth=2;verticalLabelPosition=bottom;verticalAlign=top;align=center;outlineConnect=0;" parent="1" vertex="1">
          <mxGeometry x="110" y="390" width="78" height="53" as="geometry" />
        </mxCell>
        <mxCell id="qWHH9ZGt4lW2_PK5CefO-4" value="&lt;font style=&quot;font-size: 22px;&quot;&gt;ISP&lt;/font&gt;" style="ellipse;shape=cloud;whiteSpace=wrap;html=1;fillColor=#eeeeee;strokeColor=#36393d;" parent="1" vertex="1">
          <mxGeometry x="318.5" y="180" width="201" height="130" as="geometry" />
        </mxCell>
        <mxCell id="qWHH9ZGt4lW2_PK5CefO-5" value="" style="endArrow=none;html=1;rounded=0;exitX=0.5;exitY=1;exitDx=0;exitDy=0;exitPerimeter=0;" parent="1" source="qWHH9ZGt4lW2_PK5CefO-1" target="qWHH9ZGt4lW2_PK5CefO-4" edge="1">
          <mxGeometry width="50" height="50" relative="1" as="geometry">
            <mxPoint x="400" y="310" as="sourcePoint" />
            <mxPoint x="450" y="260" as="targetPoint" />
          </mxGeometry>
        </mxCell>
        <mxCell id="qWHH9ZGt4lW2_PK5CefO-6" value="" style="endArrow=none;html=1;rounded=0;" parent="1" source="qWHH9ZGt4lW2_PK5CefO-3" target="qWHH9ZGt4lW2_PK5CefO-4" edge="1">
          <mxGeometry width="50" height="50" relative="1" as="geometry">
            <mxPoint x="400" y="310" as="sourcePoint" />
            <mxPoint x="450" y="260" as="targetPoint" />
          </mxGeometry>
        </mxCell>
        <mxCell id="qWHH9ZGt4lW2_PK5CefO-7" value="" style="endArrow=none;html=1;rounded=0;" parent="1" source="qWHH9ZGt4lW2_PK5CefO-2" target="qWHH9ZGt4lW2_PK5CefO-4" edge="1">
          <mxGeometry width="50" height="50" relative="1" as="geometry">
            <mxPoint x="400" y="310" as="sourcePoint" />
            <mxPoint x="450" y="260" as="targetPoint" />
          </mxGeometry>
        </mxCell>
        <mxCell id="qWHH9ZGt4lW2_PK5CefO-8" value="&lt;font style=&quot;font-size: 20px;&quot;&gt;HQ(Hub)&lt;/font&gt;" style="text;html=1;align=center;verticalAlign=middle;resizable=0;points=[];autosize=1;strokeColor=none;fillColor=none;" parent="1" vertex="1">
          <mxGeometry x="369" y="-80" width="100" height="40" as="geometry" />
        </mxCell>
        <mxCell id="qWHH9ZGt4lW2_PK5CefO-9" value="&lt;font style=&quot;font-size: 20px;&quot;&gt;Branch1(Spoke)&lt;/font&gt;" style="text;html=1;align=center;verticalAlign=middle;resizable=0;points=[];autosize=1;strokeColor=none;fillColor=none;" parent="1" vertex="1">
          <mxGeometry x="70" y="450" width="170" height="40" as="geometry" />
        </mxCell>
        <mxCell id="qWHH9ZGt4lW2_PK5CefO-11" value="&lt;font style=&quot;font-size: 20px;&quot;&gt;Branch2(Spoke)&lt;/font&gt;" style="text;html=1;align=center;verticalAlign=middle;resizable=0;points=[];autosize=1;strokeColor=none;fillColor=none;" parent="1" vertex="1">
          <mxGeometry x="614" y="450" width="170" height="40" as="geometry" />
        </mxCell>
        <mxCell id="piZtCrCqH7cR7YjSoodY-1" value="G0/0" style="text;html=1;align=center;verticalAlign=middle;resizable=0;points=[];autosize=1;strokeColor=none;fillColor=none;" parent="1" vertex="1">
          <mxGeometry x="419" y="23" width="50" height="30" as="geometry" />
        </mxCell>
        <mxCell id="piZtCrCqH7cR7YjSoodY-2" value="G0/0" style="text;html=1;align=center;verticalAlign=middle;resizable=0;points=[];autosize=1;strokeColor=none;fillColor=none;" parent="1" vertex="1">
          <mxGeometry x="650" y="360" width="50" height="30" as="geometry" />
        </mxCell>
        <mxCell id="piZtCrCqH7cR7YjSoodY-3" value="G0/0" style="text;html=1;align=center;verticalAlign=middle;resizable=0;points=[];autosize=1;strokeColor=none;fillColor=none;" parent="1" vertex="1">
          <mxGeometry x="150" y="360" width="50" height="30" as="geometry" />
        </mxCell>
        <mxCell id="piZtCrCqH7cR7YjSoodY-4" value="&lt;font style=&quot;font-size: 18px;&quot;&gt;123.0.1.0/24&lt;/font&gt;" style="text;html=1;align=center;verticalAlign=middle;resizable=0;points=[];autosize=1;strokeColor=none;fillColor=none;" parent="1" vertex="1">
          <mxGeometry x="359" y="100" width="120" height="40" as="geometry" />
        </mxCell>
        <mxCell id="piZtCrCqH7cR7YjSoodY-5" value="&lt;font style=&quot;font-size: 18px;&quot;&gt;123.0.2.0/24&lt;/font&gt;" style="text;html=1;align=center;verticalAlign=middle;resizable=0;points=[];autosize=1;strokeColor=none;fillColor=none;" parent="1" vertex="1">
          <mxGeometry x="220" y="320" width="120" height="40" as="geometry" />
        </mxCell>
        <mxCell id="piZtCrCqH7cR7YjSoodY-9" value="&lt;font style=&quot;font-size: 18px;&quot;&gt;123.0.3.0/24&lt;/font&gt;" style="text;html=1;align=center;verticalAlign=middle;resizable=0;points=[];autosize=1;strokeColor=none;fillColor=none;" parent="1" vertex="1">
          <mxGeometry x="519.5" y="320" width="120" height="40" as="geometry" />
        </mxCell>
        <mxCell id="piZtCrCqH7cR7YjSoodY-11" value="&lt;font style=&quot;font-size: 18px;&quot;&gt;192.168.1.1/24&lt;/font&gt;" style="text;html=1;align=center;verticalAlign=middle;resizable=0;points=[];autosize=1;strokeColor=none;fillColor=none;" parent="1" vertex="1">
          <mxGeometry x="349" y="-120" width="140" height="40" as="geometry" />
        </mxCell>
        <mxCell id="piZtCrCqH7cR7YjSoodY-12" value="&lt;font style=&quot;font-size: 18px;&quot;&gt;192.168.2.1/24&lt;/font&gt;" style="text;html=1;align=center;verticalAlign=middle;resizable=0;points=[];autosize=1;strokeColor=none;fillColor=none;" parent="1" vertex="1">
          <mxGeometry x="79" y="490" width="140" height="40" as="geometry" />
        </mxCell>
        <mxCell id="piZtCrCqH7cR7YjSoodY-13" value="&lt;font style=&quot;font-size: 18px;&quot;&gt;192.168.3.1/24&lt;/font&gt;" style="text;html=1;align=center;verticalAlign=middle;resizable=0;points=[];autosize=1;strokeColor=none;fillColor=none;" parent="1" vertex="1">
          <mxGeometry x="629" y="490" width="140" height="40" as="geometry" />
        </mxCell>
      </root>
    </mxGraphModel>
  </diagram>
</mxfile>
